<?xml version="1.0" encoding="UTF-8" standalone="no"?>
<!-- Created with Inkscape (http://www.inkscape.org/) -->

<svg
   width="158.23154mm"
   height="155.14905mm"
   viewBox="0 0 158.23154 155.14904"
   version="1.1"
   id="svg5"
   xml:space="preserve"
   inkscape:version="1.2.1 (9c6d41e410, 2022-07-14)"
   sodipodi:docname="enlargedTurtle.svg"
   inkscape:export-filename="Exported svg\LOGO.svg"
   inkscape:export-xdpi="96"
   inkscape:export-ydpi="96"
   xmlns:inkscape="http://www.inkscape.org/namespaces/inkscape"
   xmlns:sodipodi="http://sodipodi.sourceforge.net/DTD/sodipodi-0.dtd"
   xmlns="http://www.w3.org/2000/svg"
   xmlns:svg="http://www.w3.org/2000/svg"><sodipodi:namedview
     id="namedview7"
     pagecolor="#ffffff"
     bordercolor="#000000"
     borderopacity="0.25"
     inkscape:showpageshadow="2"
     inkscape:pageopacity="0.0"
     inkscape:pagecheckerboard="0"
     inkscape:deskcolor="#d1d1d1"
     inkscape:document-units="mm"
     showgrid="false"
     inkscape:zoom="0.20441169"
     inkscape:cx="496.54693"
     inkscape:cy="288.63319"
     inkscape:window-width="1600"
     inkscape:window-height="829"
     inkscape:window-x="-8"
     inkscape:window-y="-8"
     inkscape:window-maximized="1"
     inkscape:current-layer="layer1" /><defs
     id="defs2"><clipPath
       clipPathUnits="userSpaceOnUse"
       id="clipPath5130"><path
         id="path5132"
         style="fill:#ff0000;fill-opacity:1;fill-rule:nonzero;stroke:none;stroke-width:0.264583"
         d="m 810.70297,447.24546 -13.70409,3.4e-4 c -0.003,0.0597 -0.0108,0.12668 -0.0264,0.20142 0.0857,0.047 -0.0293,0.21563 -0.0341,0.32117 -0.008,0.16944 -0.009,0.33935 -0.0138,0.50892 0.0132,0.22598 0.0207,0.38709 0.0318,0.54814 0.0169,0.0818 0.0328,0.16197 0.0484,0.24016 0.19108,-0.003 0.23856,0.32241 0.33325,0.49542 0.0669,0.12226 0.1032,0.25881 0.14752,0.39118 0.68678,-0.0426 1.38824,0.64106 1.13511,1.88913 -0.0749,0.36925 -0.10815,0.71205 -0.36266,1.00092 3.51768,2.02311 2.02486,6.37412 -3.03661,5.62889 0.0557,0.18364 0.0267,0.36383 -0.0629,0.51609 0.12294,0.15386 0.24538,0.30809 0.36699,0.46216 0.89642,1.34205 0.61165,2.35366 -0.21711,3.5302 0.116,0.2814 0.17421,0.58348 0.14513,0.89509 -0.0251,0.2687 -0.13839,0.52136 -0.20757,0.7822 -0.16451,0.20597 -0.32892,0.41233 -0.49343,0.61831 -1.9991,2.50303 -0.40433,-5.08696 -2.16124,-2.40836 -0.093,0.1418 -0.1862,0.28339 -0.27924,0.42518 -0.0282,0.16175 -0.147,0.67439 -0.0219,0.96388 0.0609,0.0496 0.12192,0.0991 0.17466,0.15399 0.013,0.0129 0.0567,0.043 0.039,0.0385 -0.10544,-0.0268 -0.17261,-0.0975 -0.21365,-0.1925 -0.12108,-0.0987 -0.24189,-0.19783 -0.29823,-0.33831 -0.48817,-1.2174 -0.19645,-1.86454 0.59715,-2.6976 0.0273,-0.0361 0.0576,-0.0969 0.0895,-0.14991 -0.23233,-0.28484 -0.47006,-0.56508 -0.70594,-0.84697 -0.67699,0.35695 -0.55556,0.29017 -1.3895,0.74358 -0.67545,0.36724 -1.3455,0.76378 -2.10245,0.93954 -1.56016,0.36223 -1.67895,-0.98984 -0.20047,-1.60587 0.77975,-0.32491 1.52118,-0.7348 2.26307,-1.14207 -0.61984,-0.1924 -1.2294,-0.41574 -1.81196,-0.70276 -0.67524,-0.33271 -0.85498,-0.80417 -0.7037,-1.14247 -2.57896,-0.31459 -5.16324,-0.59212 -7.72139,-1.03776 -5.8186,-1.0137 -5.36921,-6.51467 -0.31805,-6.50951 0.42807,0 0.88878,0.0406 1.38194,0.12621 3.30255,0.57332 6.6512,0.86155 9.97236,1.32322 0.76105,0.12277 0.79609,0.12908 1.14131,0.18393 0.16772,-0.79293 0.21117,-1.38004 0.43282,-1.62227 0.0177,-0.69371 0.12669,-1.3769 0.43361,-2.01044 0.0869,-0.1795 0.1773,-0.36486 0.30102,-0.52107 l -107.7557,4.5e-4 -1.2e-4,108.02122 124.80752,-3.6e-4 z m -12.66984,4.08187 c 0.0272,0.0492 0.0542,0.0982 0.0796,0.1484 0.0254,0.0503 -0.0329,-0.10122 -0.0796,-0.1484 z m -5.09403,10.06817 c 0.0197,0.0531 0.0441,0.10436 0.0775,0.1487 0.0204,0.0271 -0.0236,-0.0635 -0.0355,-0.0953 -0.014,-0.0179 -0.028,-0.0356 -0.0421,-0.0534 z" /></clipPath></defs><g
     inkscape:label="Layer 1"
     inkscape:groupmode="layer"
     id="layer1"
     transform="translate(-255.39202,-1.9645407)"><rect
       style="fill:#ffffff;fill-opacity:1;fill-rule:evenodd;stroke:none;stroke-width:0.0432779;stroke-linecap:square;stroke-miterlimit:3.4;stroke-dasharray:none;paint-order:stroke fill markers"
       id="rect5202"
       width="158.23157"
       height="155.14906"
       x="255.39201"
       y="1.9645411"
       rx="37.75732"
       ry="33.472919"
       inkscape:export-filename="Exported svg\squareTurtleLogo.svg"
       inkscape:export-xdpi="96"
       inkscape:export-ydpi="96" /><path
       style="fill:#005c2c;fill-opacity:1;fill-rule:evenodd;stroke:none;stroke-width:1;stroke-linecap:square;stroke-miterlimit:3.4;paint-order:stroke fill markers"
       d="m 800.53148,517.88367 c -2.72212,0.35985 -5.45117,0.86826 -8.11107,-0.10489 -2.31357,-0.93736 -3.22835,0.21677 -3.75338,2.38096 -0.14543,1.63056 -3.60879,2.60101 -0.9817,2.9658 4.07036,0.73654 6.65308,4.3474 7.94212,8.02817 3.30435,6.94613 5.49794,14.54981 10.25165,20.70111 0.0803,1.93662 -2.08742,-2.05976 -3.15479,-2.3005 -4.35372,-4.98785 -8.99132,-9.76124 -13.0583,-14.97926 -1.47203,-0.40702 -2.31495,-2.53062 -4.27438,-2.72202 -0.34128,-2.76932 -2.45155,-2.28188 -3.58937,-0.27179 -4.09144,4.26643 -8.934,5.22438 -14.17185,8.06467 -6.98161,2.95007 -12.42095,2.35774 -19.01549,1.91846 -3.01132,-0.6662 -5.45462,-0.75102 -8.63707,-2.38886 -1.73904,-0.32291 -3.717,-2.75583 -5.27572,-1.48619 -3.88724,2.24668 -5.59388,6.6465 -8.67248,9.68245 -1.54868,0.79932 -2.93596,1.23044 -4.49563,1.00542 -1.40148,-0.0858 -1.10188,-1.49673 -1.10188,-1.49673 l -3.31826,-0.16486 -3.05958,-2.71983 1.65736,-4.16431 -0.26799,-1.71035 -0.33631,-2.14631 c 3.02799,-2.95949 6.72282,-4.97992 10.35443,-7.08938 -0.58343,-1.72216 -0.58761,-3.49552 -2.68799,-4.62259 -1.52669,-1.92307 -4.416,-0.89127 -3.50493,-1.60287 -1.90558,-1.38421 1.38463,-3.20118 1.93181,-4.78968 2.34389,-2.44039 2.02297,-2.22304 0.65761,-2.1496 -3.37014,0.0467 -7.31737,0.44671 -10.62409,0.0475 -2.44933,-1.18933 -5.56648,-1.21762 -7.84871,-2.49792 2.07439,-2.38031 -0.69714,-1.48408 -2.01593,-2.67008 -2.13321,-1.83981 2.05578,-1.654 2.63901,-3.19747 3.52373,-0.58287 7.13967,-0.63448 10.70419,-0.51375 1.47856,-0.54057 3.20095,0.23516 5.03874,0.13903 1.56318,0.1998 4.21691,0.0814 4.92617,0.3693 1.50341,-0.85012 2.22219,-0.84171 2.86855,-2.1619 1.19873,-2.21093 2.59081,-3.49275 4.33082,-5.08699 1.72111,-1.57268 3.21049,-2.66284 5.66247,-4.04993 3.47175,-1.94768 8.1791,-4.71092 10.67656,-4.44059 2.01156,-0.57562 7.30384,-0.80245 9.51473,-0.92669 3.78131,0.63614 2.71068,-0.098 7.16363,0.96673 6.18372,1.47852 10.40329,3.67016 11.74259,2.27284 1.45948,-0.62337 2.6438,-2.88251 2.70717,-3.2479 2.39548,-0.97796 3.36891,-3.83106 3.91608,-6.15863 -0.0274,-4.54577 1.93908,-5.20033 2.94473,-9.48998 4.31443,-4.60276 6.95673,-13.90643 9.23642,-19.62934 -1.95167,7.57552 -3.49746,15.39397 -3.145,23.22566 -1.31362,5.52663 -2.20881,11.17436 -3.8009,16.62048 -0.70875,3.5029 -6.2337,6.16879 -0.93195,8.56157 1.81415,2.22346 0.95908,1.19523 4.03865,0.1882 2.04554,0.0864 3.73888,-0.91876 5.75306,-0.15145 3.35255,0.75603 6.85837,0.5533 9.98156,2.13243 1.01395,1.58362 1.13032,3.21965 2.35459,4.81004 0.99385,1.78189 -0.35618,3.49436 -1.13123,4.61615 -1.70782,1.32726 -4.03924,0.46119 -5.77448,1.85301 -0.69312,0.44022 -1.45384,0.53041 -2.25424,0.58267 z"
       id="path5204"
       clip-path="url(#clipPath5130)"
       sodipodi:nodetypes="ccccccccsccccccccccccccccccccccccccccccscccccccccccccccc"
       transform="matrix(0.97500782,-1.1007687,1.1007687,0.97500782,-980.82687,418.29192)" /></g></svg>
